<?xml version="1.0" standalone="no"?>
<!DOCTYPE svg PUBLIC "-//W3C//DTD SVG 20010904//EN"
 "http://www.w3.org/TR/2001/REC-SVG-20010904/DTD/svg10.dtd">
<svg version="1.0" id="logo" xmlns="http://www.w3.org/2000/svg"
 width="475.000000pt" height="203.000000pt" viewBox="0 0 475.000000 203.000000"
 preserveAspectRatio="xMidYMid meet">

<g transform="translate(0.000000,203.000000) scale(0.100000,-0.100000)"
fill="#000000" stroke="none">
<path class="cls-1" d="M2458 1954 c-3 -3 -4 -23 -1 -45 4 -25 1 -45 -8 -56 -9 -11 -10 -14
-1 -9 8 4 13 1 14 -11 0 -10 4 5 7 32 4 28 2 56 -3 63 -7 9 -5 16 5 23 8 5 9
9 3 9 -6 0 -13 -3 -16 -6z"/>
<path d="M2590 1919 c-50 -4 -55 -6 -22 -7 23 -1 42 -6 42 -12 0 -10 -7 -12
-45 -14 -23 -1 -33 -42 -16 -59 8 -8 10 -3 5 21 -4 21 -3 32 5 32 6 0 11 -5
11 -12 0 -9 3 -9 12 0 19 19 26 14 31 -20 3 -25 4 -22 5 15 2 39 5 47 21 47
16 0 21 -8 24 -47 l3 -48 2 48 c2 47 2 47 37 47 30 0 35 -3 35 -24 0 -29 -17
-43 -33 -27 -9 9 -8 14 3 22 13 9 13 10 0 6 -23 -6 -19 -42 5 -42 11 0 23 -7
27 -15 6 -14 13 36 9 68 -1 8 14 12 49 12 37 0 50 -4 50 -15 0 -7 -7 -18 -16
-23 -13 -7 -13 -11 3 -28 10 -11 14 -14 10 -7 -5 7 -3 25 4 43 13 27 18 30 61
30 27 0 48 -4 48 -10 0 -5 -9 -10 -21 -10 -16 0 -19 -4 -14 -20 8 -26 -20 -28
-34 -2 -6 9 -11 12 -11 6 0 -18 28 -37 45 -30 8 3 15 12 15 21 0 29 19 15 23
-17 3 -25 4 -22 5 15 2 47 2 47 37 47 24 0 35 -5 35 -15 0 -8 -9 -15 -20 -15
-11 0 -20 -4 -20 -9 0 -5 9 -7 19 -4 15 4 20 -1 24 -24 3 -18 5 -12 6 20 1 39
4 47 20 47 16 0 21 -8 24 -47 l3 -48 2 48 c2 38 5 47 20 47 27 0 32 -10 19
-31 -10 -16 -9 -21 3 -29 23 -15 36 -12 16 3 -16 12 -17 16 -5 35 20 32 43 29
36 -5 -2 -16 -1 -37 3 -48 5 -14 8 -5 11 32 l4 52 -275 3 c-151 2 -304 0 -340
-3z"/>
<path d="M1718 1913 c32 -4 34 -6 28 -36 -3 -18 -1 -39 4 -47 7 -11 10 -7 11
20 1 19 1 41 0 48 -1 8 18 12 69 12 40 0 70 -4 70 -10 0 -10 -7 -12 -45 -14
-23 -1 -33 -42 -16 -59 8 -8 10 -3 5 21 -6 32 8 46 20 20 5 -10 7 -10 12 0 10
22 23 13 27 -20 3 -26 4 -23 5 13 l2 46 50 2 c43 0 50 -2 50 -18 0 -11 -7 -21
-15 -23 -11 -2 -10 -8 6 -28 17 -21 19 -22 10 -3 -7 14 -8 24 -1 28 5 3 10 15
10 26 0 10 7 19 15 19 8 0 15 -9 15 -20 0 -11 -6 -20 -12 -20 -9 0 -10 -3 -2
-8 6 -4 14 -14 17 -22 3 -8 6 4 6 28 l1 42 40 0 c29 0 40 -4 40 -15 0 -9 -9
-15 -25 -15 -14 0 -25 -4 -25 -9 0 -4 11 -6 25 -3 14 2 25 0 25 -5 0 -6 11 -8
24 -6 19 4 25 0 29 -18 2 -13 5 -3 6 24 1 34 5 47 15 47 11 0 16 -14 19 -47
l3 -48 2 48 c2 47 2 47 37 47 24 0 35 -5 35 -15 0 -8 -9 -15 -20 -15 -11 0
-20 -4 -20 -9 0 -5 9 -7 19 -4 15 4 20 -1 24 -24 3 -18 5 -12 6 20 1 39 4 47
20 47 17 0 20 -8 23 -47 l3 -48 5 53 5 52 -345 -2 c-190 0 -330 -3 -312 -5z
m472 -23 c0 -13 -7 -20 -20 -20 -13 0 -20 7 -20 20 0 13 7 20 20 20 13 0 20
-7 20 -20z"/>
<path d="M2407 1913 c-4 -3 -7 -11 -7 -17 0 -6 4 -4 10 4 5 8 12 11 17 7 4 -5
-3 -16 -15 -26 -21 -16 -22 -19 -8 -31 14 -11 16 -10 10 4 -4 10 0 18 10 22
19 7 22 44 3 44 -8 0 -17 -3 -20 -7z"/>
<path d="M1704 1875 c-7 -17 3 -35 19 -35 8 0 7 3 -2 9 -8 5 -11 16 -8 25 4 9
4 16 1 16 -2 0 -7 -7 -10 -15z"/>
<path d="M1785 1866 c0 -13 3 -22 8 -19 4 2 7 13 7 24 0 10 -3 19 -7 19 -5 0
-8 -11 -8 -24z"/>
<path d="M2778 1878 c9 -9 9 -15 0 -27 -10 -13 -8 -13 6 1 18 16 15 38 -7 38
-8 0 -8 -3 1 -12z"/>
<path d="M2693 1776 c-67 -17 -151 -67 -225 -135 -56 -51 -58 -55 -58 -104 l0
-51 69 75 c78 85 165 143 239 160 44 11 54 10 76 -5 31 -20 32 -29 5 -107
l-22 -62 24 -18 c32 -25 47 -24 42 4 -3 12 3 43 12 67 9 25 22 66 28 93 10 43
9 49 -9 68 -26 26 -110 33 -181 15z"/>
<path d="M2172 1714 c-105 -63 -168 -79 -254 -63 -131 23 -154 23 -177 0 -41
-41 -22 -179 42 -310 43 -89 169 -216 252 -255 181 -85 317 32 356 306 18 122
-8 296 -52 352 -31 39 -63 33 -167 -30z m106 -184 c52 -24 54 -34 4 -28 -44 6
-71 -6 -102 -45 -12 -15 -24 -26 -27 -24 -10 11 19 88 40 102 27 19 33 19 85
-5z m-287 -81 c41 -44 36 -50 -20 -27 l-49 21 -37 -22 c-50 -29 -56 -19 -15
24 44 46 81 47 121 4z m309 -119 c0 -27 -23 -80 -46 -106 -77 -87 -196 -84
-294 8 l-35 33 110 5 c101 5 115 8 180 42 84 43 85 43 85 18z"/>
<path d="M2579 1635 c-50 -27 -99 -162 -106 -295 -7 -117 7 -194 51 -285 55
-116 98 -149 190 -149 89 0 175 45 276 144 88 86 184 295 166 363 -10 41 -40
51 -171 57 -137 6 -177 21 -255 94 -90 84 -110 93 -151 71z m103 -262 c32 -3
58 -9 58 -13 0 -15 -61 -50 -87 -50 -36 0 -46 7 -72 50 -28 47 -27 53 11 34
17 -9 58 -19 90 -21z m224 -88 c16 -14 49 -35 74 -47 l44 -22 -29 -12 c-65
-28 -109 -12 -125 44 -19 70 -11 78 36 37z m-136 -113 c19 -9 45 -32 57 -50
21 -32 41 -117 30 -128 -3 -3 -26 8 -51 25 -52 36 -150 75 -213 86 -47 7 -52
14 -25 37 55 49 140 62 202 30z"/>
<path d="M3108 1546 c-45 -51 -46 -54 -25 -60 45 -12 66 -6 87 24 19 27 21 35
10 60 -7 17 -15 30 -19 30 -3 0 -27 -24 -53 -54z"/>
<path d="M1675 1316 c-140 -45 -252 -122 -282 -194 -12 -30 -12 -37 5 -65 34
-60 121 -69 268 -27 93 27 152 26 195 -3 27 -18 35 -31 37 -59 3 -30 -3 -42
-33 -72 -19 -20 -55 -45 -78 -57 -54 -28 -54 -27 -31 -44 46 -36 49 -36 108 6
91 65 127 150 92 217 -48 91 -125 104 -348 56 -93 -20 -131 -15 -152 19 -9 16
-4 25 35 60 58 53 116 82 214 107 43 11 80 22 82 24 6 6 -27 56 -36 55 -3 -1
-37 -11 -76 -23z"/>
<path d="M2409 1303 c-9 -2 -26 -30 -38 -62 -11 -31 -35 -78 -52 -104 l-31
-47 26 -45 c15 -24 50 -70 80 -102 81 -88 94 -124 57 -158 -19 -17 -21 -16
-41 16 -11 19 -25 51 -32 72 l-11 37 -172 0 c-162 0 -174 -1 -206 -23 -63 -42
-95 -142 -68 -214 27 -73 78 -100 264 -142 204 -47 255 -84 255 -185 0 -60
-16 -92 -59 -119 -32 -19 -49 -22 -146 -22 -125 0 -195 18 -269 66 -70 47 -90
81 -95 163 -3 62 -5 68 -17 51 -9 -12 -14 -45 -14 -89 0 -87 22 -140 76 -184
62 -52 121 -66 264 -67 117 0 129 2 181 28 87 42 130 116 131 223 0 71 -16
108 -66 152 -39 34 -47 37 -254 86 -148 36 -196 59 -213 103 -16 44 -10 72 25
111 34 37 36 37 122 41 l87 3 -6 -28 c-4 -24 1 -35 33 -66 36 -34 118 -72 183
-85 59 -12 137 49 137 106 0 33 -33 90 -94 161 -66 77 -86 115 -86 164 0 42
36 86 70 86 18 0 21 5 18 37 -3 37 -10 44 -39 36z m-94 -462 c85 -49 99 -84
17 -42 -37 19 -93 71 -76 71 5 0 32 -13 59 -29z"/>
<path d="M3073 1128 c-25 -32 -22 -36 33 -54 70 -22 99 -44 90 -70 -3 -10 -48
-44 -98 -74 l-93 -55 3 -39 c2 -22 8 -49 12 -60 8 -20 9 -20 9 3 1 33 62 87
139 124 75 36 122 77 122 107 0 33 -52 75 -130 104 -83 30 -75 29 -87 14z"/>
<path d="M1322 910 c-56 -35 -62 -63 -62 -310 0 -134 4 -229 10 -241 16 -30
55 -23 100 17 22 20 38 39 35 42 -3 3 -11 0 -17 -6 -7 -7 -20 -12 -30 -12 -17
0 -18 13 -16 232 l3 232 36 11 c38 11 69 31 69 46 0 18 -94 9 -128 -11z"/>
<path d="M224 897 c-126 -48 -183 -172 -139 -298 25 -71 83 -119 142 -119 28
0 28 0 -10 23 -97 59 -136 218 -77 315 40 65 184 98 230 52 19 -19 20 -33 20
-260 0 -239 0 -241 -23 -263 -13 -12 -32 -27 -43 -34 -15 -10 6 -12 110 -12
l130 -1 -29 30 c-28 29 -29 34 -33 150 -3 75 -1 120 5 120 6 0 69 -64 141
-143 218 -239 343 -347 443 -383 62 -21 145 -18 186 7 56 35 82 107 59 164
-12 28 -21 35 -42 35 -23 0 -25 -3 -19 -22 35 -109 -4 -178 -100 -178 -83 0
-174 65 -309 219 -136 155 -286 341 -286 353 0 20 185 200 235 229 l50 29
-305 -1 c-208 0 -315 -4 -336 -12z m503 -14 c5 -13 -21 -43 -102 -120 -60 -57
-112 -103 -117 -103 -10 0 -11 134 -2 180 9 43 48 59 142 60 59 0 74 -3 79
-17z"/>
<path d="M1020 711 c-110 -34 -162 -109 -164 -236 0 -78 19 -121 59 -131 30
-7 57 8 117 64 l48 45 0 -32 c0 -32 37 -81 61 -81 16 0 68 32 73 45 2 6 -8 10
-23 10 l-26 0 -3 163 -2 162 -58 -1 c-31 0 -68 -4 -82 -8z m60 -120 l0 -98
-44 -23 c-42 -23 -45 -23 -70 -7 -22 15 -26 25 -26 68 0 27 7 63 15 78 20 40
72 81 101 81 24 0 24 -1 24 -99z"/>
<path d="M1608 706 c-86 -31 -131 -86 -149 -180 -22 -120 32 -213 102 -175 12
6 44 32 71 57 l48 45 0 -32 c0 -32 37 -81 60 -81 19 0 67 29 73 43 4 10 -1 13
-19 9 l-23 -4 -3 163 -3 164 -60 2 c-33 2 -77 -4 -97 -11z m72 -115 l0 -98
-44 -23 c-42 -23 -45 -23 -70 -7 -22 15 -26 25 -26 68 0 27 7 63 15 78 20 40
72 81 101 81 24 0 24 -1 24 -99z"/>
<path d="M2720 711 c-99 -30 -152 -95 -165 -202 -13 -102 29 -180 87 -166 13
4 49 29 81 57 l57 52 0 -32 c0 -33 37 -80 64 -80 9 0 30 14 48 31 24 22 27 29
13 24 -11 -3 -24 -7 -30 -8 -6 -1 -11 61 -13 166 l-2 167 -58 -1 c-31 0 -68
-4 -82 -8z m60 -120 l0 -98 -44 -23 c-42 -23 -45 -23 -70 -7 -22 15 -26 25
-26 68 0 28 8 67 17 86 18 39 65 73 101 73 21 0 22 -3 22 -99z"/>
<path d="M2957 681 c-39 -37 -40 -39 -14 -34 l27 5 0 -156 c0 -170 2 -176 54
-135 24 19 26 26 26 104 0 76 2 86 27 117 37 45 55 58 73 55 12 -2 16 -28 20
-140 5 -146 9 -157 57 -157 12 0 35 12 50 26 25 22 26 24 6 19 -30 -8 -35 15
-33 143 3 169 3 171 -25 184 -37 17 -79 -6 -128 -69 l-42 -54 -6 54 c-10 91
-27 98 -92 38z"/>
<path d="M3349 682 c-39 -36 -40 -39 -18 -38 l24 1 3 -152 c3 -166 5 -172 56
-132 24 19 26 26 26 103 0 76 2 85 30 124 31 41 61 59 80 47 6 -4 10 -64 10
-151 0 -98 4 -144 11 -144 6 0 24 8 40 17 28 17 29 19 29 99 0 74 3 85 30 122
16 23 39 46 51 53 39 20 49 -9 49 -139 0 -62 5 -122 10 -133 13 -23 52 -25 85
-3 30 20 44 49 15 34 -10 -5 -21 -10 -24 -10 -3 0 -6 66 -6 148 0 164 -8 192
-58 192 -20 0 -42 -17 -89 -66 l-63 -67 0 51 c0 118 -81 107 -177 -23 l-22
-30 -2 40 c-3 100 -28 116 -90 57z"/>
<path d="M4097 706 c-97 -35 -149 -113 -151 -224 -1 -77 21 -128 58 -138 30
-7 58 7 117 63 l46 43 7 -39 c6 -39 35 -71 64 -71 17 0 72 38 72 49 0 5 -11 6
-25 3 l-24 -4 -3 163 -3 164 -60 2 c-33 2 -77 -4 -98 -11z m73 -116 l0 -100
-44 -22 c-42 -20 -46 -20 -70 -4 -22 14 -26 24 -26 67 0 27 7 63 15 78 20 40
72 81 101 81 24 0 24 -1 24 -100z"/>
<path d="M4347 680 c-40 -38 -41 -40 -14 -34 l27 6 0 -156 c0 -170 2 -176 54
-135 24 19 26 26 26 104 l0 83 43 48 c31 34 48 46 60 41 15 -5 17 -23 17 -129
0 -96 4 -129 16 -146 20 -29 56 -28 91 4 25 22 25 24 6 19 -21 -6 -21 -4 -25
148 -3 162 -10 187 -50 187 -34 0 -72 -27 -113 -81 l-40 -53 -5 55 c-9 93 -28
101 -93 39z"/>
</g>
</svg>
